<svg width="64" height="64" viewBox="0 0 64 64" fill="none" xmlns="http://www.w3.org/2000/svg">
  <rect width="64" height="64" rx="12" fill="#001765" fill-opacity="0.1"/>
  <!-- Robotic arm -->
  <rect x="8" y="40" width="16" height="4" fill="#001765"/>
  <rect x="20" y="20" width="4" height="20" fill="#001765"/>
  <rect x="24" y="16" width="12" height="4" fill="#001765"/>
  <rect x="36" y="12" width="4" height="8" fill="#001765"/>
  
  <!-- Gripper -->
  <rect x="38" y="10" width="6" height="2" fill="#00BCD4"/>
  <rect x="40" y="8" width="2" height="4" fill="#00BCD4"/>
  
  <!-- Conveyor belt -->
  <rect x="8" y="50" width="48" height="6" fill="#666"/>
  <rect x="10" y="52" width="4" height="2" fill="#00BCD4"/>
  <rect x="18" y="52" width="4" height="2" fill="#00BCD4"/>
  <rect x="26" y="52" width="4" height="2" fill="#00BCD4"/>
  <rect x="34" y="52" width="4" height="2" fill="#00BCD4"/>
  <rect x="42" y="52" width="4" height="2" fill="#00BCD4"/>
  <rect x="50" y="52" width="4" height="2" fill="#00BCD4"/>
  
  <!-- Packages -->
  <rect x="44" y="24" width="8" height="8" rx="1" fill="#001765"/>
  <rect x="48" y="32" width="8" height="8" rx="1" fill="#00BCD4"/>
  
  <!-- Motion indicators -->
  <path d="M 42 18 L 46 18 M 44 16 L 48 16 M 46 20 L 50 20" stroke="#00BCD4" stroke-width="1"/>
  
  <!-- Control panel -->
  <rect x="48" y="44" width="8" height="4" fill="#001765"/>
  <circle cx="50" cy="46" r="0.5" fill="#00BCD4"/>
  <circle cx="54" cy="46" r="0.5" fill="#00BCD4"/>
</svg>