<svg width="800" height="600" viewBox="0 0 800 600" fill="none" xmlns="http://www.w3.org/2000/svg">
  <!-- Background -->
  <rect width="800" height="600" fill="#F8FAFC"/>
  
  <!-- Main Dashboard Screen -->
  <rect x="100" y="80" width="600" height="400" rx="20" fill="#FFFFFF" stroke="#E2E8F0" stroke-width="2"/>
  
  <!-- Screen Header -->
  <rect x="120" y="100" width="560" height="60" rx="8" fill="#001765"/>
  <text x="140" y="140" fill="white" font-family="Inter" font-size="24" font-weight="600">EVO IoT Management Platform</text>
  
  <!-- Smart Retail Section -->
  <rect x="140" y="180" width="160" height="120" rx="12" fill="#E0F2FE" stroke="#0284C7" stroke-width="1"/>
  <circle cx="170" cy="210" r="15" fill="#0284C7"/>
  <path d="M163 210h14m-7-7v14" stroke="white" stroke-width="2" stroke-linecap="round"/>
  <text x="200" y="215" fill="#001765" font-family="Inter" font-size="14" font-weight="600">Smart Retail</text>
  <text x="150" y="235" fill="#475569" font-family="Inter" font-size="11">Traffic Analytics</text>
  <text x="150" y="250" fill="#475569" font-family="Inter" font-size="11">Digital Pricing</text>
  <text x="150" y="265" fill="#475569" font-family="Inter" font-size="11">Interactive Displays</text>
  <rect x="150" y="275" width="60" height="8" rx="4" fill="#10B981"/>
  <text x="220" y="283" fill="#059669" font-family="Inter" font-size="10">98% Active</text>
  
  <!-- Smart Warehouse Section -->
  <rect x="320" y="180" width="160" height="120" rx="12" fill="#FEF3E0" stroke="#EA580C" stroke-width="1"/>
  <circle cx="350" cy="210" r="15" fill="#EA580C"/>
  <rect x="343" y="203" width="14" height="14" rx="2" fill="white"/>
  <text x="380" y="215" fill="#001765" font-family="Inter" font-size="14" font-weight="600">Smart Warehouse</text>
  <text x="330" y="235" fill="#475569" font-family="Inter" font-size="11">RFID Inventory</text>
  <text x="330" y="250" fill="#475569" font-family="Inter" font-size="11">Auto CCTV</text>
  <text x="330" y="265" fill="#475569" font-family="Inter" font-size="11">Robotics</text>
  <rect x="330" y="275" width="70" height="8" rx="4" fill="#F59E0B"/>
  <text x="410" y="283" fill="#D97706" font-family="Inter" font-size="10">95% Efficiency</text>
  
  <!-- Smart Home Section -->
  <rect x="500" y="180" width="160" height="120" rx="12" fill="#F0FDF4" stroke="#16A34A" stroke-width="1"/>
  <circle cx="530" cy="210" r="15" fill="#16A34A"/>
  <path d="M523 210l3 3 6-6" stroke="white" stroke-width="2" stroke-linecap="round" stroke-linejoin="round"/>
  <text x="560" y="215" fill="#001765" font-family="Inter" font-size="14" font-weight="600">Smart Home</text>
  <text x="510" y="235" fill="#475569" font-family="Inter" font-size="11">Home Automation</text>
  <text x="510" y="250" fill="#475569" font-family="Inter" font-size="11">Climate Control</text>
  <text x="510" y="265" fill="#475569" font-family="Inter" font-size="11">Energy Monitor</text>
  <rect x="510" y="275" width="55" height="8" rx="4" fill="#16A34A"/>
  <text x="575" y="283" fill="#15803D" font-family="Inter" font-size="10">92% Online</text>
  
  <!-- Analytics Chart -->
  <rect x="140" y="320" width="520" height="120" rx="8" fill="#FAFBFC" stroke="#E2E8F0"/>
  <text x="160" y="345" fill="#001765" font-family="Inter" font-size="16" font-weight="600">Real-time Analytics</text>
  
  <!-- Chart Lines -->
  <polyline points="160,400 200,380 240,360 280,350 320,345 360,340 400,335 440,330 480,325 520,320 560,315 600,310 640,305" 
            fill="none" stroke="#0284C7" stroke-width="3" stroke-linecap="round"/>
  <polyline points="160,420 200,410 240,400 280,390 320,385 360,380 400,375 440,370 480,365 520,360 560,355 600,350 640,345" 
            fill="none" stroke="#EA580C" stroke-width="3" stroke-linecap="round"/>
  <polyline points="160,430 200,425 240,420 280,415 320,410 360,405 400,400 440,395 480,390 520,385 560,380 600,375 640,370" 
            fill="none" stroke="#16A34A" stroke-width="3" stroke-linecap="round"/>
  
  <!-- Legend -->
  <circle cx="520" cy="360" r="4" fill="#0284C7"/>
  <text x="535" y="365" fill="#475569" font-family="Inter" font-size="12">Retail</text>
  <circle cx="570" cy="360" r="4" fill="#EA580C"/>
  <text x="585" y="365" fill="#475569" font-family="Inter" font-size="12">Warehouse</text>
  <circle cx="630" cy="360" r="4" fill="#16A34A"/>
  <text x="645" y="365" fill="#475569" font-family="Inter" font-size="12">Home</text>
  
  <!-- Connection Lines -->
  <path d="M200 300 Q300 280 400 300" stroke="#CBD5E1" stroke-width="2" fill="none" stroke-dasharray="5,5" opacity="0.5"/>
  <path d="M480 300 Q580 280 680 300" stroke="#CBD5E1" stroke-width="2" fill="none" stroke-dasharray="5,5" opacity="0.5"/>
  
  <!-- Southeast Asia Coverage Indicator -->
  <rect x="520" y="100" width="160" height="60" rx="8" fill="#EFF6FF" stroke="#2563EB" stroke-width="1"/>
  <text x="540" y="120" fill="#001765" font-family="Inter" font-size="12" font-weight="600">Coverage</text>
  <text x="540" y="140" fill="#2563EB" font-family="Inter" font-size="20" font-weight="700">30+</text>
  <text x="580" y="145" fill="#475569" font-family="Inter" font-size="11">Cities</text>
  <text x="540" y="155" fill="#475569" font-family="Inter" font-size="10">Southeast Asia</text>
</svg>