<svg width="64" height="64" viewBox="0 0 64 64" fill="none" xmlns="http://www.w3.org/2000/svg">
  <rect width="64" height="64" fill="#001765"/>
  <!-- House outline -->
  <path d="M 12 32 L 32 12 L 52 32 L 52 52 L 12 52 Z" fill="white" stroke="white" stroke-width="2"/>
  <path d="M 12 32 L 32 12 L 52 32" fill="none" stroke="#001765" stroke-width="2"/>
  
  <!-- Windows -->
  <rect x="18" y="26" width="6" height="8" fill="#00BCD4"/>
  <rect x="40" y="26" width="6" height="8" fill="#00BCD4"/>
  
  <!-- Door -->
  <rect x="28" y="38" width="8" height="14" fill="#001765"/>
  <circle cx="30" cy="45" r="1" fill="white"/>
  
  <!-- Smart devices -->
  <!-- Light bulb -->
  <circle cx="22" cy="22" r="3" fill="#00BCD4"/>
  <rect x="20" y="25" width="4" height="2" fill="#00BCD4"/>
  
  <!-- Thermostat -->
  <circle cx="42" cy="22" r="3" fill="#00BCD4"/>
  <circle cx="42" cy="22" r="1.5" fill="white"/>
  
  <!-- Security camera -->
  <rect x="48" y="18" width="3" height="2" fill="#00BCD4"/>
  <circle cx="51" cy="19" r="1" fill="white"/>
  
  <!-- Connection lines -->
  <line x1="22" y1="22" x2="32" y2="32" stroke="white" stroke-width="1" stroke-dasharray="2,2" opacity="0.7"/>
  <line x1="42" y1="22" x2="32" y2="32" stroke="white" stroke-width="1" stroke-dasharray="2,2" opacity="0.7"/>
  <line x1="50" y1="19" x2="32" y2="32" stroke="white" stroke-width="1" stroke-dasharray="2,2" opacity="0.7"/>
  
  <!-- Central hub -->
  <circle cx="32" cy="32" r="2" fill="#00BCD4"/>
</svg>