<svg width="64" height="64" viewBox="0 0 64 64" fill="none" xmlns="http://www.w3.org/2000/svg">
  <rect width="64" height="64" rx="12" fill="#001765" fill-opacity="0.1"/>
  <!-- Warehouse shelves -->
  <rect x="8" y="20" width="6" height="24" fill="#666"/>
  <rect x="8" y="20" width="20" height="2" fill="#666"/>
  <rect x="8" y="30" width="20" height="2" fill="#666"/>
  <rect x="8" y="40" width="20" height="2" fill="#666"/>
  
  <rect x="50" y="20" width="6" height="24" fill="#666"/>
  <rect x="36" y="20" width="20" height="2" fill="#666"/>
  <rect x="36" y="30" width="20" height="2" fill="#666"/>
  <rect x="36" y="40" width="20" height="2" fill="#666"/>
  
  <!-- RFID tags -->
  <rect x="10" y="22" width="8" height="6" rx="1" fill="#001765"/>
  <rect x="10" y="32" width="8" height="6" rx="1" fill="#001765"/>
  <rect x="38" y="22" width="8" height="6" rx="1" fill="#001765"/>
  <rect x="38" y="32" width="8" height="6" rx="1" fill="#001765"/>
  
  <!-- RFID signals -->
  <g transform="translate(14, 16)">
    <path d="M 0 0 L 0 -8" stroke="#00BCD4" stroke-width="2"/>
    <path d="M -3 -6 A 3 3 0 0 1 3 -6" stroke="#00BCD4" stroke-width="1" fill="none"/>
    <path d="M -6 -8 A 6 6 0 0 1 6 -8" stroke="#00BCD4" stroke-width="1" fill="none"/>
  </g>
  
  <g transform="translate(42, 16)">
    <path d="M 0 0 L 0 -8" stroke="#00BCD4" stroke-width="2"/>
    <path d="M -3 -6 A 3 3 0 0 1 3 -6" stroke="#00BCD4" stroke-width="1" fill="none"/>
    <path d="M -6 -8 A 6 6 0 0 1 6 -8" stroke="#00BCD4" stroke-width="1" fill="none"/>
  </g>
  
  <!-- Scanner device -->
  <rect x="26" y="46" width="12" height="8" rx="2" fill="#001765"/>
  <rect x="28" y="48" width="8" height="2" fill="#00BCD4"/>
  <circle cx="32" cy="52" r="1" fill="#00BCD4"/>
</svg>