<svg width="64" height="64" viewBox="0 0 64 64" fill="none" xmlns="http://www.w3.org/2000/svg">
  <rect width="64" height="64" rx="12" fill="#001765" fill-opacity="0.1"/>
  <!-- Store layout -->
  <rect x="8" y="8" width="48" height="48" fill="none" stroke="#001765" stroke-width="2"/>
  
  <!-- Staff members -->
  <!-- Staff 1 (active) -->
  <g transform="translate(16, 20)">
    <circle cx="0" cy="0" r="3" fill="#00BCD4"/>
    <rect x="-2" y="3" width="4" height="6" rx="2" fill="#00BCD4"/>
    <circle cx="0" cy="-8" r="6" fill="none" stroke="#00BCD4" stroke-width="1" stroke-dasharray="2,2"/>
  </g>
  
  <!-- Staff 2 (active) -->
  <g transform="translate(40, 32)">
    <circle cx="0" cy="0" r="3" fill="#00BCD4"/>
    <rect x="-2" y="3" width="4" height="6" rx="2" fill="#00BCD4"/>
    <circle cx="0" cy="-8" r="6" fill="none" stroke="#00BCD4" stroke-width="1" stroke-dasharray="2,2"/>
  </g>
  
  <!-- Staff 3 (standby) -->
  <g transform="translate(48, 48)">
    <circle cx="0" cy="0" r="3" fill="#666"/>
    <rect x="-2" y="3" width="4" height="6" rx="2" fill="#666"/>
  </g>
  
  <!-- Customers -->
  <g opacity="0.7">
    <circle cx="24" cy="16" r="2" fill="#001765"/>
    <circle cx="32" cy="20" r="2" fill="#001765"/>
    <circle cx="28" cy="32" r="2" fill="#001765"/>
    <circle cx="36" cy="40" r="2" fill="#001765"/>
    <circle cx="20" cy="44" r="2" fill="#001765"/>
  </g>
  
  <!-- Peak hours indicator -->
  <rect x="4" y="4" width="16" height="8" rx="2" fill="#FF6B6B" opacity="0.1"/>
  <text x="12" y="6" text-anchor="middle" font-family="Arial" font-size="6" fill="#FF6B6B" font-weight="bold">PEAK</text>
  <text x="12" y="10" text-anchor="middle" font-family="Arial" font-size="5" fill="#FF6B6B">2-4 PM</text>
  
  <!-- Traffic flow lines -->
  <path d="M 12 12 Q 24 16 32 24 Q 40 32 44 44" stroke="#00BCD4" stroke-width="1" fill="none" opacity="0.5"/>
  
  <!-- Notification -->
  <g transform="translate(44, 8)">
    <circle cx="0" cy="0" r="6" fill="#4CAF50"/>
    <text x="0" y="2" text-anchor="middle" font-family="Arial" font-size="8" fill="white">!</text>
    <text x="0" y="12" text-anchor="middle" font-family="Arial" font-size="5" fill="#4CAF50">ALERT</text>
  </g>
  
  <!-- Coverage areas -->
  <rect x="12" y="12" width="16" height="16" fill="none" stroke="#00BCD4" stroke-width="1" stroke-dasharray="3,3" opacity="0.5"/>
  <rect x="32" y="24" width="16" height="16" fill="none" stroke="#00BCD4" stroke-width="1" stroke-dasharray="3,3" opacity="0.5"/>
</svg>